<?xml version="1.0" encoding="UTF-8" standalone="no"?>
<!DOCTYPE svg PUBLIC "-//W3C//DTD SVG 1.1//EN" "http://www.w3.org/Graphics/SVG/1.1/DTD/svg11.dtd">
<svg width="100%" height="100%" viewBox="0 0 1354 487" version="1.1" xmlns="http://www.w3.org/2000/svg" xmlns:xlink="http://www.w3.org/1999/xlink" xml:space="preserve" xmlns:serif="http://www.serif.com/" style="fill-rule:evenodd;clip-rule:evenodd;stroke-linejoin:round;stroke-miterlimit:2;">
    <g id="Background" transform="matrix(1.48007,0,0,1.48007,-85.600338,-45.003474)">
        <g transform="matrix(0.993512,0.113728,-0.113728,0.993512,37.487164,-8.247709)">
            <path d="M63.164,50.515C62.187,48.682 62.046,49.051 60.41,47.537C55.629,43.113 83.592,23.627 107.532,42.457C119.925,52.205 116.447,54.721 117.508,55.495C121.333,58.289 121.415,58.127 124.287,62.593C124.618,63.108 125.071,67.105 125.381,67.587C135.619,83.513 127.788,87.234 129.866,91.278C138.842,108.75 117.861,160.163 111.252,167.297C101.025,178.336 80.822,204.225 77.174,209.272C76.366,210.389 72.96,215.101 88.63,222.142C100.36,227.413 104.633,236.762 104.943,237.134C110.502,243.803 109.924,243.994 110.402,244.556C123.728,260.219 123.549,260.162 134.361,277.585C142.374,290.498 143.8,289.182 152.954,301.172C153.008,302.908 152.08,302.903 153.057,304.5C154.201,306.369 159.946,305.954 155.484,301.72C169.572,301.444 164.735,255.841 159.398,253.805C141.379,246.93 161.131,241.142 165.502,241.488C174.099,242.168 180.864,263.724 180.496,264.5C177.764,270.26 181.901,270.13 182.147,276.522C182.252,279.247 181.186,278.874 181.023,281.458C180.483,290.017 179.908,289.743 179.985,290.464C181.325,303.005 174.758,308.744 174.416,309.457C161.376,336.632 133.58,313.259 127.995,304.225C115.369,283.803 114.885,281.71 114.376,279.511C113.121,274.086 107.359,276.721 94.615,257.416C90.182,250.702 72.16,236.258 71.505,236.449C67.578,237.594 70.776,239.917 70.948,241.434C72.629,256.257 70.436,256.259 70.919,257.446C74.101,265.258 74.128,265.122 74.118,273.489C74.114,276.869 81.633,284.517 74.924,293.789C74.394,293.893 62.53,296.221 71.576,299.65C69.663,302.006 69.598,301.826 68.259,304.518C67.34,303.078 65.253,299.806 64.294,283.538C65.092,281.783 65.381,282.146 66.365,280.417C67.063,279.189 66.208,279.403 63.376,277.551C63.196,277.075 61.269,271.961 61.228,271.57C59.325,253.787 58.096,254.035 58.145,252.49C58.217,250.199 59.411,250.756 59.855,248.598C60.664,244.662 59.433,244.906 54.806,235.327C52.475,230.5 51.347,195.523 49.345,191.584C51.277,190.176 51.131,190.008 53.581,189.769C60.073,189.138 48.717,184.067 48.127,183.803L45.161,176.593C48.612,168.451 52.518,171.422 53.466,170.402C60.065,163.301 45.831,167.642 45.559,167.461C39.907,156.537 44.297,146.456 42.188,134.576C36.514,102.611 44.056,102.136 41.125,94.582C37.46,85.138 40.462,85.109 43.555,75.523C45.98,68.004 45.589,55.609 55.616,55.579C55.943,55.578 55.801,55.562 55.959,54.725C56.647,51.073 57.927,52.279 61.519,51.567C63.512,53.27 63.313,53.204 63.512,53.27C65.64,53.977 64.042,52.474 63.164,50.515ZM85.602,53.943C71.656,53.69 70.489,54.739 64.632,67.565C61.554,74.306 61.225,74.091 60.198,81.444C59.546,86.106 56.711,85.509 57.075,97.544C57.078,97.638 56.26,114.982 56.189,116.498C56.121,117.941 56.903,117.72 57.265,134.528C57.536,147.082 59.487,146.858 58.28,159.496C58.095,161.426 60.208,160.995 61.646,183.495C61.716,184.592 62.699,199.969 67.222,196.064C70.608,193.14 67.732,190.521 80.142,181.043C84.968,177.358 97.966,159.387 99.396,157.411C100.715,155.587 99.131,154.756 112.582,132.553C113.756,130.615 112.726,130.526 116.58,104.511C116.864,102.593 117.796,96.306 113.103,80.524C108.46,64.907 95.504,57.098 93.335,55.791C87.402,54.307 87.469,54.262 85.602,53.943ZM65.307,206.472C64.711,204.368 64.622,204.071 62.493,204.47C58.331,205.249 63.082,209.983 65.307,206.472Z" style="fill:rgb(228,228,228);"/>
        </g>
        <g transform="matrix(1,0,0,1,-19.335347,17.015106)">
            <path d="M915.284,144.057C921.459,142.659 921.428,141.781 927.417,143.886C934.47,146.364 938.252,140.818 939.931,148.215C941.304,154.265 945.72,149.485 952.072,155.95C959.004,163.005 957.905,163.705 959.538,165.465C983.617,191.405 989.07,261.992 989.808,264.457C990.724,267.516 986.439,277.109 986.827,278.302C987.221,279.516 990.165,288.576 987.052,294.244C973.532,318.86 974.502,250.939 974.332,250.532C971.175,242.96 974.463,242.321 971.202,234.608C969.977,231.712 970.234,231.868 966.496,216.5C964.898,209.933 964.352,210.158 964.29,209.58C963.171,199.126 954.568,189.944 951.443,182.525C943.983,164.807 931.14,164.28 929.636,162.371C927.699,159.911 926.528,161.675 924.721,159.247C922.165,155.811 921.221,159.765 920.484,160.486C919.057,161.881 904.256,176.355 906.911,181.419C907.764,183.044 906.355,190.039 906.126,190.332C901.164,196.679 904.476,198.318 901.562,201.545C897.211,206.365 903.45,208.043 899.214,217.309C898.638,217.255 898.063,217.2 897.487,217.145C889.417,218.932 900.325,222.199 899.152,230.448C897.091,244.953 894.777,247.442 893.749,248.549C892.811,249.558 894.27,265.083 884.495,264.534C877.463,264.139 879.176,245.112 877.36,239.53C876.76,237.688 866.83,203.048 872.454,202.298C882.831,200.914 876.02,196.644 875.505,196.636C871.817,196.575 867.364,204.229 865.454,195.511C861.007,175.197 841.251,147.86 837.037,164.366C831.271,163.408 831.105,166.085 833.393,171.466C832.506,174.519 825.893,188.377 824.501,204.5C823.927,211.143 820.657,210.322 820.524,218.5C820.472,221.747 819.763,221.417 819.303,224.465C819.135,225.575 821.367,225.463 819.586,238.503C819.02,242.649 820.216,242.679 818.681,246.556C817.444,249.68 819.157,250.121 816.923,252.647C813.411,256.62 823.07,264.272 815.805,272.605C815.273,273.215 817.448,273.509 814.954,282.687C814.662,283.76 815.479,283.782 813.534,296.514C810.988,313.181 807.433,269.706 806.325,266.532C805.169,263.218 810.121,255.968 806.913,247.376C806.387,245.965 809.184,246.119 808.076,228.586C807.423,218.265 811.703,213.548 812.598,212.562C816.055,208.752 807.11,205.8 811.601,198.542C811.99,197.914 810.367,197.563 813.371,189.475C815.416,183.968 812.79,183.31 816.032,178.246C816.135,178.084 816.032,178.246 817.137,176.121C820.828,181.109 819.042,182.179 819.55,182.095C824.021,181.359 823.168,179.944 823.021,175.371C822.49,173.835 822.723,173.873 821.698,172.431C809.908,161.176 839.028,142.723 843.516,145.47C849.051,148.857 848.869,149.697 851.529,149.241C859.846,147.816 857.798,152.77 863.536,156.464C867.281,158.875 866.658,166.065 869.585,168.434C881.281,177.899 873.657,182.363 882.126,194.751C884.831,198.706 882.536,200.63 884.239,203.734C884.406,204.273 884.574,204.812 884.741,205.351L884.452,206.498L885.118,208.168C883.532,211.115 884.266,211.2 886.136,213.96C885.945,216.389 885.925,216.195 885.945,216.389C886.096,217.882 892.365,220.954 889.436,213.486C889.493,210.577 890.344,210.494 888.607,208.405C888.628,208.257 888.444,203.919 888.224,202.374C892.456,194.924 889.997,184.602 891.327,182.432C898.457,170.796 891.224,165.331 906.435,151.403C908.083,152.082 908.246,152.783 909.5,151.389C910.791,149.954 910.591,149.706 911.537,149.653C914.272,149.501 913.686,148.732 915.467,146.5C916.61,145.067 915.361,145.095 915.284,144.057Z" style="fill:rgb(228,228,228);"/>
        </g>
        <path d="M431.614,197.48C434.437,200.32 433.166,200.743 433.186,203.704C433.208,207.115 434.853,205.016 437.895,203.692C438.84,191.001 444.582,191.868 448.128,184.228C450.635,178.824 451.642,179.829 456.231,176.22C460.984,172.481 461.036,172.832 466.579,170.853C468.199,170.274 475.346,167.722 487.509,165.937C488.719,165.759 506.344,174.306 508.089,177.737C512.209,185.844 513.692,184.518 519.09,191.791C522.01,195.726 530.74,227.34 531.606,230.475C534.644,241.479 533.033,244.284 533.062,244.514C533.536,248.299 530.127,248.045 531.66,251.421C539.488,268.664 533.795,293.86 533.145,307.434C532.889,312.769 529.659,311.937 526.622,307.434C524.995,305.249 522.678,304.127 525.627,291.53C526.38,288.315 522.607,278.698 522.549,276.497C522.305,267.2 523.008,267.237 519.83,258.45C519.587,257.775 520.379,249.941 519.758,248.435C514.037,234.556 515.576,225.499 513.744,222.384C498.959,197.252 496.635,180.902 472.587,190.772C462.304,194.992 467.33,199.827 461.014,205.095C456.51,208.852 458.932,210.19 456.062,215.285C451.61,223.189 450.865,230.862 448.556,237.513C445.575,246.099 447.755,259.634 447.581,263.496C446.785,281.118 449.246,280.856 449.818,298.402C450.001,304.034 454.557,301.94 455.284,307.498C453.082,311.507 453.658,312.212 451.52,312.536C447.341,313.168 448.213,314.424 447.246,316.369C444.773,321.344 436.392,317.027 433.778,312.24C425.15,307.408 429.56,304.613 426.299,294.524C425.931,293.385 428.938,293.118 425.152,279.608C424.51,277.316 424.156,255.555 421.403,247.511C419.687,242.497 423.604,239.257 420.315,233.57C417.155,228.104 422.279,213.512 416.944,205.298C413.706,200.312 420.171,192.523 420.897,191.649C421.575,190.832 413.885,190.808 420.378,178.396C422.705,173.947 427.33,187.724 427.827,188.301C431.256,192.28 431.715,192.148 431.614,197.48Z" style="fill:rgb(228,228,228);"/>
        <g transform="matrix(1,0,0,1,0,3.867069)">
            <path d="M656.04,170.671C657.194,172.288 656.984,172.217 658.194,173.689C658.998,174.668 659.409,175.168 657.491,189.502C657.485,189.841 657.48,190.18 657.475,190.519C658.799,192.601 661.3,204.15 661.275,207.511C661.163,222.614 663.9,222.199 663.836,223.493C663.719,225.84 663.399,228.174 663.283,230.522C663.24,231.388 666.335,237.042 666.318,238.5C666.265,242.799 667.876,242.38 667.865,246.478C667.828,259.31 670.541,258.594 675.898,270.298C676.98,272.662 687.577,295.814 698.521,293.643C709.877,291.389 709.563,290.77 710.552,290.789C714.494,290.868 714.181,290.077 715.938,286.785C722.912,273.719 725.089,275.132 725.249,273.462C726.191,263.597 729.689,264.835 732.202,255.392C739.777,226.925 736.74,226.603 736.805,223.484C737.13,207.91 738.062,208.048 736.019,192.551C736.985,190.971 737.535,191.399 737.885,189.5C737.915,189.337 738.062,188.541 738.619,187.561C740.583,184.111 737.847,184.637 735.633,181.475C730.265,171.607 731.029,168.667 730.017,167.857C719.481,159.425 728.514,153.653 734.436,154.877C745.9,157.244 748.368,170.846 748.647,171.449C755.04,185.31 753.688,185.558 756.606,200.483C753.58,202.886 753.289,202.003 749.654,203.729C749.315,203.89 745.066,207.35 752.533,207.44C755.967,207.481 753.29,213.247 755.086,214.5C755.601,214.859 756.449,214.018 756.963,214.376C759.16,235.384 754.154,258.592 750.845,262.633C750.042,263.614 753.046,264.557 745.852,277.671C742.516,283.752 745.15,285.291 736.787,293.731C731.901,298.661 734.889,300.882 731.054,303.049C725.973,305.921 726.02,305.795 721.601,309.649C720.916,310.246 720.405,308.365 710.696,312.851C705.873,315.079 705.486,311.685 700.513,313.555C689.006,317.884 690.006,310.952 678.277,306.839C678.195,303.863 680.235,302.439 674.384,299.603C666.99,290.43 663.604,292.13 663.265,283.523C663.074,278.643 659.312,279.816 658.255,269.52C657.639,263.523 653.304,264.654 653.925,254.476C654.258,249.033 647.176,245.501 651.232,236.466C651.797,235.207 648.769,233.57 650.562,231.524C653.468,228.209 647.917,220.742 648.119,215.519C648.643,201.937 645.887,160.621 656.04,170.671Z" style="fill:rgb(228,228,228);"/>
        </g>
        <path d="M367.142,182.804C369.921,193.745 369.675,193.771 375.075,203.715C375.567,204.621 379.321,211.533 375.628,216.588C373.288,219.793 372.169,219.826 373.912,223.476C374.109,223.886 372.709,230.511 376.386,230.681C379.949,230.847 382.518,244.436 381.163,250.393C379.293,258.614 383.312,257.94 389.582,278.475C392.314,287.424 387.894,288.134 390.171,290.747C395.737,297.133 398.815,316.359 388.499,321.495C385.485,319.448 381.6,314.185 379.612,315.775C379.279,316.041 377.018,317.851 375.188,318.744C369.766,311.29 373,310.144 369.805,301.441C368.157,296.953 372.734,290.915 370.561,287.474C366.062,280.346 369.44,256.687 366.167,249.619C365.788,248.803 366.263,248.812 364.761,238.462C363.809,231.908 367.465,231.949 365.571,225.476C362.319,214.368 366.242,212.106 363.539,204.494C362.905,202.709 365.629,201.614 364.649,199.455C362.627,195.001 363.81,193.973 364.605,184.536C364.935,183.941 364.996,184.072 367.142,182.804Z" style="fill:rgb(228,228,228);"/>
        <path d="M301.709,114.444C298.961,116.871 291.377,120.683 299.639,122.046C301.007,122.272 300.849,122.309 302.298,122.624C304.803,127.786 303.522,127.945 304.006,133.595C304.792,147.944 307.452,156.649 306.99,158.573C305.667,164.083 308.278,164.05 307.336,169.494C306.457,181.676 312.302,182.765 306.262,190.4C298.464,195.425 306.126,195.837 306.5,196.039C306.819,196.212 305.722,196.422 307.338,200.5C307.566,201.076 308.681,200.915 308.909,201.49C310.567,219.026 309.533,218.973 309.83,220.464C311.27,230.097 311.241,276.003 311.097,276.176C307.711,280.252 309.693,280.7 311.965,285.448C310.19,285.439 310.382,286.056 308.708,286.112C308.576,286.059 308.036,285.407 306.626,285.28C303.33,284.983 305.541,282.846 303.394,280.508C304.35,274.645 301.62,274.923 302.325,272.477C304.335,265.499 300.469,259.341 300.471,253.503C300.471,250.853 300.479,221.965 299.805,220.382C294.082,206.94 295.482,143.621 289.03,126.626C286.106,118.926 294.511,118.115 289.873,111.225C288.801,109.632 293.67,99.694 301.709,114.444Z" style="fill:rgb(228,228,228);"/>
        <path d="M600.75,172.401C600.127,195 602.258,204.688 602.861,207.43C604.927,219.646 598.703,220.577 604.585,231.476C604.575,231.489 601.687,232.319 602.679,236.473C604.422,245.045 603.788,244.971 602.977,253.543C602.208,261.675 607.617,261.482 605.47,268.49C603.141,276.091 608.911,302.678 607.215,308.415C604.557,317.403 603.346,317.507 602.525,317.578C593.505,318.353 595,309.336 593.634,306.465C589.623,298.036 592.046,276.014 591.794,275.393C588.592,267.514 592.542,265.434 591.153,260.527C588.354,250.634 590.405,230.963 590.205,229.526C588.985,220.737 591.641,221.19 591.376,220.513C588.039,212.011 593.548,194.967 589.375,185.529C588.031,182.488 597.632,181.991 593.359,179.832C590.139,178.204 590.035,177.674 591.26,174.227C599.043,179.45 596.811,172.513 597.105,172.153C597.289,171.926 597.382,171.812 600.75,172.401Z" style="fill:rgb(228,228,228);"/>
        <path d="M237.547,252.541C232.131,252.935 235.104,255.199 235.365,255.588C243.636,268.164 239.104,269.912 241.861,289.572C245.31,314.171 240.514,317.516 238.58,318.865C236.86,316.957 236.902,316.398 234.529,317.313C231.457,316.66 229.613,316.939 225.894,298.464C225.657,297.288 228.238,297.414 225.641,283.473C223.318,271.004 227.692,270.523 223.594,258.474C221.767,253.104 225.365,252.812 222.444,239.514C222.167,238.253 222.915,238.308 220.828,223.454C219.975,217.385 221.643,217.429 220.207,211.533C219.922,210.36 220.775,210.397 218.733,196.509C218.501,194.928 221.27,195.072 218.969,176.547C217.756,166.774 231.114,190.856 228.268,199.441C227.801,200.849 235.38,214.008 231.527,215.526C224.877,218.147 233.1,219.651 233.283,221.559C234.673,236.076 239.981,245.576 237.547,252.541Z" style="fill:rgb(228,228,228);"/>
        <path d="M361.029,111.258C361.786,110.332 368.444,102.175 374.436,104.644C393.884,112.658 380.331,151.034 362.482,146.596C353.827,144.444 351.337,133.895 351.003,132.478C350.71,131.238 360.333,112.318 361.029,111.258Z" style="fill:rgb(228,228,228);"/>
        <path d="M583.368,132.7C581.019,128.488 582.035,128.335 582.477,123.498C582.938,118.451 581.118,118.725 581.284,113.51C581.627,102.734 586.728,106.295 588.435,105.342C607.93,94.457 609.242,142.849 587.516,135.489C588.43,132.646 589.389,132.634 588.18,130.755C586.344,127.903 585.982,130.531 583.368,132.7Z" style="fill:rgb(228,228,228);"/>
        <path d="M221.483,140.461C214.709,143.116 207.025,119.591 217.701,113.816C227.546,108.491 225.409,120.667 229.458,119.939C235.473,118.857 233.529,122.271 236.764,130.434C238.262,134.215 227.808,142.043 223.434,141.762C222.784,141.328 222.133,140.895 221.483,140.461Z" style="fill:rgb(228,228,228);"/>
        <g transform="matrix(0.993512,0.113728,-0.113728,0.993512,37.487164,-8.247709)">
            <path d="M76.505,298.493C80.41,302.698 80.62,302.908 79.734,308.547C79.255,311.596 82.378,310.488 82.412,313.512C82.589,329.179 83.822,329.053 83.836,330.41C83.975,344.043 89.066,344.718 83.5,353.78C79.844,349.492 79.208,344.518 79.096,343.641C78.365,337.925 70.044,328.612 72.49,318.497C72.958,316.561 68.864,316.919 68.259,304.518C69.598,301.826 69.663,302.006 71.576,299.65C74.158,299.142 74.01,299.217 76.505,298.493Z" style="fill:rgb(228,228,228);"/>
        </g>
        <path d="M311.965,285.448C313.101,290.354 307.693,333.379 306.744,310.4C306.72,310.066 306.695,309.731 306.67,309.397C305.958,299.773 304.803,300.115 304.273,290.452C308.143,289.882 309.589,290.006 308.708,286.112C310.382,286.056 310.19,285.439 311.965,285.448Z" style="fill:rgb(228,228,228);"/>
        <path d="M455.284,307.498C455.729,308.19 458.051,311.803 452.382,317.361C444.448,325.139 429.284,318.576 433.778,312.24C436.392,317.027 444.773,321.344 447.246,316.369C448.213,314.424 447.341,313.168 451.52,312.536C453.658,312.212 453.082,311.507 455.284,307.498Z" style="fill:rgb(228,228,228);"/>
        <g transform="matrix(0.993512,0.113728,-0.113728,0.993512,37.487164,-8.247709)">
            <path d="M85.602,53.943C85.5,51.98 85.348,52.021 85.5,51.98C88.781,51.081 86.734,49.33 88.93,46.904C95.28,39.889 93.431,55.003 93.335,55.791C87.402,54.307 87.469,54.262 85.602,53.943Z" style="fill:rgb(228,228,228);"/>
        </g>
        <g transform="matrix(1,0,0,1,0,3.867069)">
            <path d="M756.606,200.483C758.335,207.366 755.618,207.484 756.963,214.376C756.449,214.018 755.601,214.859 755.086,214.5C753.29,213.247 755.967,207.481 752.533,207.44C745.066,207.35 749.315,203.89 749.654,203.729C753.289,202.003 753.58,202.886 756.606,200.483Z" style="fill:rgb(228,228,228);"/>
        </g>
        <path d="M375.188,318.744C377.018,317.851 379.279,316.041 379.612,315.775C381.6,314.185 385.485,319.448 388.499,321.495C376.787,322.824 376.908,320.893 375.188,318.744Z" style="fill:rgb(228,228,228);"/>
        <g transform="matrix(0.993512,0.113728,-0.113728,0.993512,37.487164,-8.247709)">
            <path d="M45.559,167.461C45.831,167.642 60.065,163.301 53.466,170.402C52.518,171.422 48.612,168.451 45.161,176.593C45.063,175.868 44.422,171.12 45.559,167.461Z" style="fill:rgb(228,228,228);"/>
        </g>
        <g transform="matrix(1,0,0,1,-19.335347,17.015106)">
            <path d="M915.284,144.057C915.361,145.095 916.61,145.067 915.467,146.5C913.686,148.732 914.272,149.501 911.537,149.653C910.591,149.706 910.791,149.954 909.5,151.389C908.246,152.783 908.083,152.082 906.435,151.403C910.102,146.695 909.526,146.018 915.284,144.057Z" style="fill:rgb(228,228,228);"/>
        </g>
        <path d="M306.262,190.4C309.579,195.294 309.098,195.481 308.909,201.49C308.681,200.915 307.566,201.076 307.338,200.5C305.722,196.422 306.819,196.212 306.5,196.039C306.126,195.837 298.464,195.425 306.262,190.4Z" style="fill:rgb(228,228,228);"/>
        <g transform="matrix(0.993512,0.113728,-0.113728,0.993512,37.487164,-8.247709)">
            <path d="M48.127,183.803C48.717,184.067 60.073,189.138 53.581,189.769C51.131,190.008 51.277,190.176 49.345,191.584C47.243,188.034 49.129,187.772 48.127,183.803Z" style="fill:rgb(228,228,228);"/>
        </g>
        <path d="M301.709,114.444C302.636,121.959 302.127,121.991 302.298,122.624C300.849,122.309 301.007,122.272 299.639,122.046C291.377,120.683 298.961,116.871 301.709,114.444Z" style="fill:rgb(228,228,228);"/>
        <g transform="matrix(0.993512,0.113728,-0.113728,0.993512,37.487164,-8.247709)">
            <path d="M74.924,293.789C75.246,296.38 75.416,296.125 76.505,298.493C74.01,299.217 74.158,299.142 71.576,299.65C62.53,296.221 74.394,293.893 74.924,293.789Z" style="fill:rgb(228,228,228);"/>
        </g>
        <path d="M600.75,172.401C597.382,171.812 597.289,171.926 597.105,172.153C596.811,172.513 599.043,179.45 591.26,174.227C591.885,173.556 596.879,166.083 600.75,172.401Z" style="fill:rgb(228,228,228);"/>
        <path d="M303.394,280.508C305.541,282.846 303.33,284.983 306.626,285.28C308.036,285.407 308.576,286.059 308.708,286.112C309.589,290.006 308.143,289.882 304.273,290.452C304.028,289.692 303.342,287.566 303.394,280.508Z" style="fill:rgb(228,228,228);"/>
        <path d="M226.282,132.807C226.782,136.458 227.135,137.993 223.672,137.349C221.386,136.923 217.571,126.022 226.282,132.807Z" style="fill:rgb(228,228,228);"/>
        <g transform="matrix(1,0,0,1,0,3.867069)">
            <path d="M735.633,181.475C737.847,184.637 740.583,184.111 738.619,187.561C738.062,188.541 737.915,189.337 737.885,189.5C737.535,191.399 736.985,190.971 736.019,192.551C734.78,186.977 735.307,187.066 735.633,181.475Z" style="fill:rgb(228,228,228);"/>
        </g>
        <g transform="matrix(1,0,0,1,-19.335347,17.015106)">
            <path d="M885.118,208.168L886.451,208.27C887.597,208.222 887.415,208.043 888.607,208.405C890.344,210.494 889.493,210.577 889.436,213.486C889.324,213.728 888.858,214.726 886.136,213.96C884.266,211.2 883.532,211.115 885.118,208.168Z" style="fill:rgb(228,228,228);"/>
        </g>
        <g transform="matrix(1,0,0,1,-19.335347,17.015106)">
            <path d="M818.397,175.274C820.587,176.885 820.783,176.658 823.021,175.371C823.168,179.944 824.021,181.359 819.55,182.095C819.042,182.179 820.828,181.109 817.137,176.121C817.557,175.839 817.977,175.556 818.397,175.274Z" style="fill:rgb(228,228,228);"/>
        </g>
        <path d="M528.254,313.762L529.575,314.461C530.256,317.862 530.498,318.341 527.408,319.74L526.543,319.463C526.047,317.8 525.551,316.136 525.055,314.473C528.024,313.698 527.884,313.648 528.254,313.762Z" style="fill:rgb(228,228,228);"/>
        <g transform="matrix(1,0,0,1,-19.335347,17.015106)">
            <path d="M837.037,164.366C836.455,168.567 836.617,168.708 833.393,171.466C831.105,166.085 831.271,163.408 837.037,164.366Z" style="fill:rgb(228,228,228);"/>
        </g>
        <g transform="matrix(1,0,0,1,0,3.867069)">
            <path d="M657.781,165.579C651.223,168.177 652.996,157.145 656.155,159.884C656.665,160.325 656.51,160.43 657.781,165.579Z" style="fill:rgb(228,228,228);"/>
        </g>
        <path d="M596.128,158.944C599.878,165.234 595.129,167.345 594.284,164.598C592.972,160.329 595.693,159.135 596.128,158.944Z" style="fill:rgb(228,228,228);"/>
        <g transform="matrix(1,0,0,1,0,3.867069)">
            <path d="M674.384,299.603C680.235,302.439 678.195,303.863 678.277,306.839C674.235,304.004 674.711,303.625 674.384,299.603Z" style="fill:rgb(228,228,228);"/>
        </g>
        <g transform="matrix(1,0,0,1,-19.335347,17.015106)">
            <path d="M888.224,202.374C888.444,203.919 888.628,208.257 888.607,208.405C887.415,208.043 887.597,208.222 886.451,208.27C886.007,208.236 885.562,208.202 885.118,208.168L884.452,206.498C884.548,206.116 884.644,205.733 884.741,205.351C884.574,204.812 884.406,204.273 884.239,203.734C884.832,203.501 884.812,203.942 885.461,203.687C885.688,203.597 885.461,203.687 888.224,202.374Z" style="fill:rgb(228,228,228);"/>
        </g>
        <path d="M596.484,130.257C589.783,131.286 596.075,122 597.17,125.6C597.28,125.96 597.444,126.502 596.484,130.257Z" style="fill:rgb(228,228,228);"/>
        <path d="M583.368,132.7C585.982,130.531 586.344,127.903 588.18,130.755C589.389,132.634 588.43,132.646 587.516,135.489C584.407,133.54 584.438,133.699 583.368,132.7Z" style="fill:rgb(228,228,228);"/>
        <g transform="matrix(0.993512,0.113728,-0.113728,0.993512,37.487164,-8.247709)">
            <path d="M152.954,301.172C153.797,301.354 154.641,301.537 155.484,301.72C159.946,305.954 154.201,306.369 153.057,304.5C152.08,302.903 153.008,302.908 152.954,301.172Z" style="fill:rgb(228,228,228);"/>
        </g>
        <g transform="matrix(1,0,0,1,-19.335347,17.015106)">
            <path d="M975.413,210.455C972.274,213.759 970.033,205.165 974.417,206.777C976.507,207.545 975.494,208.175 975.413,210.455Z" style="fill:rgb(228,228,228);"/>
        </g>
        <g transform="matrix(1,0,0,1,-19.335347,17.015106)">
            <path d="M886.136,213.96C888.858,214.726 889.324,213.728 889.436,213.486C892.365,220.954 886.096,217.882 885.945,216.389C885.925,216.195 885.945,216.389 886.136,213.96Z" style="fill:rgb(228,228,228);"/>
        </g>
        <g transform="matrix(1,0,0,1,-19.335347,17.015106)">
            <path d="M978.999,275.858C981.097,274.777 981.55,273.413 982.526,275.484C983.811,278.208 978.984,281.258 978.999,275.858Z" style="fill:rgb(228,228,228);"/>
        </g>
        <path d="M429.538,194.58C425.422,198.365 423.564,193.998 425.863,192.909C429.306,191.278 429.317,194.123 429.538,194.58Z" style="fill:rgb(228,228,228);"/>
        <path d="M589.476,123.105C591.211,124.674 592.272,124.929 590.476,126.428C589.776,127.012 582.239,125.228 589.476,123.105Z" style="fill:rgb(228,228,228);"/>
        <path d="M304.425,216.439C301.535,216.005 300.933,215.68 301.863,212.909C301.974,212.578 305.904,209.837 304.425,216.439Z" style="fill:rgb(228,228,228);"/>
        <g transform="matrix(0.993512,0.113728,-0.113728,0.993512,37.487164,-8.247709)">
            <path d="M63.376,277.551C66.208,279.403 67.063,279.189 66.365,280.417C65.381,282.146 65.092,281.783 64.294,283.538C63.234,280.45 62.593,280.64 63.376,277.551Z" style="fill:rgb(228,228,228);"/>
        </g>
        <g transform="matrix(1,0,0,1,-19.335347,17.015106)">
            <path d="M813.58,265.127C816.193,271.415 812.04,269.535 811.721,269.35C808.131,267.269 813.236,265.262 813.58,265.127Z" style="fill:rgb(228,228,228);"/>
        </g>
        <g transform="matrix(0.993512,0.113728,-0.113728,0.993512,37.487164,-8.247709)">
            <path d="M50.422,115.484C46.687,117.985 46.192,113.15 48.513,113.239C50.361,113.311 49.974,113.727 50.422,115.484Z" style="fill:rgb(228,228,228);"/>
        </g>
        <g transform="matrix(1,0,0,1,-19.335347,17.015106)">
            <path d="M821.698,172.431C822.723,173.873 822.49,173.835 823.021,175.371C820.783,176.658 820.587,176.885 818.397,175.274C819.498,174.326 820.598,173.379 821.698,172.431Z" style="fill:rgb(228,228,228);"/>
        </g>
        <path d="M374.923,111.599C371.127,115.805 370.378,109.724 372.475,109.438C374.508,109.161 374.139,109.866 374.923,111.599Z" style="fill:rgb(228,228,228);"/>
        <g transform="matrix(1,0,0,1,-19.335347,17.015106)">
            <path d="M845.529,152.414C848.892,155.032 841.772,156.268 842.851,153.576C843.532,151.875 845.516,152.415 845.529,152.414Z" style="fill:rgb(228,228,228);"/>
        </g>
        <path d="M430.193,213.13C426.922,214.172 426.599,209.507 429.509,210.466C431.132,211.001 430.445,211.419 430.193,213.13Z" style="fill:rgb(228,228,228);"/>
        <g transform="matrix(0.993512,0.113728,-0.113728,0.993512,37.487164,-8.247709)">
            <path d="M67.025,274.342C70.802,270.808 70.581,274.2 70.549,274.48C70.352,276.21 70.301,276.58 68.489,276.371C67.149,275.514 67.225,275.616 67.149,275.514C66.741,274.957 67.435,274.9 67.025,274.342Z" style="fill:rgb(228,228,228);"/>
        </g>
        <path d="M432.102,220.493C430.069,224.965 427.926,219.622 429.837,218.942C431.463,218.364 431.302,218.909 432.102,220.493Z" style="fill:rgb(228,228,228);"/>
        <path d="M598.657,220.673C602.78,224.565 597.953,223.945 597.654,223.446C596.913,222.205 597.603,222.304 598.657,220.673Z" style="fill:rgb(228,228,228);"/>
        <path d="M604.585,231.476C605.414,234.409 605.284,234.623 602.679,236.473C601.687,232.319 604.575,231.489 604.585,231.476Z" style="fill:rgb(228,228,228);"/>
        <path d="M234.529,317.313C236.902,316.398 236.86,316.957 238.58,318.865C236.12,319.57 236.167,319.094 234.529,317.313Z" style="fill:rgb(228,228,228);"/>
        <g transform="matrix(0.993512,0.113728,-0.113728,0.993512,37.487164,-8.247709)">
            <path d="M63.164,50.515C64.042,52.474 65.64,53.977 63.512,53.27C63.313,53.204 63.512,53.27 61.519,51.567L63.164,50.515Z" style="fill:rgb(228,228,228);"/>
        </g>
        <path d="M237.547,252.541C235.752,253.612 236.076,253.778 235.365,255.588C235.104,255.199 232.131,252.935 237.547,252.541Z" style="fill:rgb(228,228,228);"/>
        <path d="M367.142,182.804C364.996,184.072 364.935,183.941 364.605,184.536C364.94,182.182 365.414,181.008 367.142,182.804Z" style="fill:rgb(228,228,228);"/>
        <path d="M437.482,206.489C437.191,207.531 436.901,208.573 436.61,209.615C436.831,207.828 436.605,207.941 437.482,206.489Z" style="fill:rgb(228,228,228);"/>
        <g transform="matrix(0.993512,0.113728,-0.113728,0.993512,37.487164,-8.247709)">
            <path d="M67.025,274.342C67.435,274.9 66.741,274.957 67.149,275.514C67.225,275.616 67.149,275.514 68.489,276.371C67.141,275.791 67.011,275.885 67.025,274.342Z" style="fill:rgb(228,228,228);"/>
        </g>
        <g transform="matrix(1,0,0,1,-19.335347,17.015106)">
            <path d="M897.487,217.145C898.063,217.2 898.638,217.255 899.214,217.309C898.503,218.296 898.373,217.74 897.487,217.145Z" style="fill:rgb(228,228,228);"/>
        </g>
    </g>
</svg>
